<svg width="293" height="40" viewBox="0 0 293 40" fill="none" xmlns="http://www.w3.org/2000/svg">
<path d="M3.6457 11.6465C3.22929 12.6829 3 13.8147 3 15C3 19.9706 7.02944 24 12 24C13.9011 24 15.6645 23.4105 17.1174 22.4044C20.5316 20.0402 24.1471 16.6008 28.3 16.6008C32.0801 16.6008 35.6642 16.3657 38.8764 15.9452C38.742 16.9921 38.5578 17.6328 38.0953 18.0953C37.4365 18.7541 36.4161 18.8488 34.3753 19.038L29.1876 19.519L24 20L34.3753 20.962C36.4161 21.1512 37.4365 21.2459 38.0953 21.9047C38.6045 22.4138 38.7765 23.1389 38.9158 24.3841C31.6003 25.6053 26.7 27.8428 26.7 30.4008C26.7 34.2668 37.8929 37.4008 51.7 37.4008C55.228 37.4008 58.5854 37.1959 61.6289 36.8268C55.393 38.8348 47.9686 40 40 40C17.9086 40 0 31.0457 0 20C0 17.018 1.30532 14.1886 3.6457 11.6465ZM41.1232 24.0562C41.0663 24.5003 41.0183 25.0173 40.962 25.6247L40 36L39.038 25.6247C38.995 25.1611 38.9568 24.7501 38.9158 24.3841C39.6294 24.265 40.366 24.1554 41.1232 24.0562ZM40 0C62.0914 0 80 8.95431 80 20C80 22.982 78.6946 25.8113 76.3543 28.3534C76.7707 27.317 77 26.1853 77 25C77 20.0294 72.9706 16 68 16C66.0982 16 64.3343 16.5899 62.881 17.5966C59.4676 19.9613 55.8525 23.4008 51.7 23.4008C47.9198 23.4008 44.3355 23.6357 41.1232 24.0562C41.2576 23.0085 41.442 22.3674 41.9047 21.9047C42.5635 21.2459 43.5839 21.1512 45.6247 20.962L56 20L45.6247 19.038C43.5839 18.8488 42.5635 18.7541 41.9047 18.0953C41.3957 17.5864 41.2235 16.8617 41.0843 15.6174C48.3997 14.3961 53.3 12.1588 53.3 9.60078C53.3 5.73479 42.1071 2.60078 28.3 2.60078C24.769 2.60078 21.409 2.80582 18.3634 3.17559C24.6009 1.16603 32.0281 0 40 0ZM40.962 14.3753C41.0051 14.8395 41.0433 15.251 41.0843 15.6174C40.3705 15.7365 39.6338 15.8461 38.8764 15.9452C38.9334 15.5009 38.9816 14.9834 39.038 14.3753L40 4L40.962 14.3753Z" fill="url(#paint0_linear_3003_22380)"/>
<path d="M253.445 9.81566V37.01H246.663V23.4128H226.423V37.01H219.695V9.81566C219.695 5.59024 222.44 2.98999 226.423 2.98999H246.663C250.592 2.98999 253.445 5.96945 253.445 9.81566ZM226.423 16.6413H246.663V12.5157C246.663 11.0245 245.454 9.81566 243.963 9.81566H229.123C227.632 9.81566 226.423 11.0245 226.423 12.5157V16.6413Z" fill="#F8FCFB"/>
<path d="M176.765 2.98999V30.2385C176.765 34.2472 174.015 37.01 170.026 37.01H149.7C145.764 37.01 143.015 34.1389 143.015 30.2385V2.98999H149.7V30.2385H170.026V2.98999H176.765Z" fill="#F8FCFB"/>
<path d="M130.968 2.98999C135.597 2.99001 137.75 5.31924 137.75 9.81519V15.5583C137.75 15.5882 137.747 15.6178 137.747 15.6472C137.654 16.6486 137.607 17.1523 137.453 17.574C137.101 18.5375 136.341 19.2967 135.378 19.6492C134.953 19.8045 134.445 19.8519 133.43 19.946C134.445 20.0402 134.953 20.0876 135.378 20.2429C135.556 20.3082 135.728 20.3864 135.892 20.4783C137.175 21.2642 137.75 22.7312 137.75 24.9294V29.8591C137.696 34.6262 135.92 37.0095 130.968 37.0095H104V2.98999H130.968ZM110.729 30.238H128.268C129.759 30.238 130.968 29.0298 130.968 27.5388V25.6794C130.968 24.1883 129.759 22.9792 128.268 22.9792H110.729V30.238ZM110.729 16.6951H128.268C129.759 16.6951 130.968 15.4869 130.968 13.9958V12.5154C130.968 11.0243 129.759 9.81519 128.268 9.81519H110.729V16.6951Z" fill="#F8FCFB"/>
<path d="M189.192 16.8337C189.15 17.1347 189.1 17.3645 189.023 17.574C188.671 18.5374 187.912 19.2967 186.948 19.6492C186.524 19.8045 186.016 19.8519 185 19.946C186.016 20.0402 186.524 20.0876 186.948 20.2429C187.912 20.5954 188.671 21.3546 189.023 22.3181C189.1 22.5278 189.15 22.7579 189.192 23.0593L189.229 37.0095H182.521V2.98999H189.229L189.192 16.8337ZM196.258 19.5125L216.271 37.0095H205.97L190.386 21.0916C190.747 20.7182 191.192 20.4257 191.691 20.2429C192.116 20.0876 192.624 20.0402 193.64 19.946C192.624 19.8519 192.116 19.8045 191.691 19.6492C191.153 19.452 190.677 19.1279 190.302 18.7117L205.54 2.98999H215.735L196.258 19.5125Z" fill="#F8FCFB"/>
<path d="M293 9.81519H266.341V13.9412C266.341 15.4322 267.549 16.6412 269.04 16.6414H293V23.4128H269.04C267.549 23.413 266.341 24.622 266.341 26.113V30.238H293V37.0095H259.25V24.2664C259.344 23.2507 259.392 22.7428 259.547 22.3181C259.899 21.3546 260.659 20.5953 261.622 20.2429C262.047 20.0877 262.555 20.0402 263.57 19.946C262.555 19.8519 262.047 19.8045 261.622 19.6492C260.659 19.2967 259.899 18.5375 259.547 17.574C259.392 17.1493 259.344 16.6412 259.25 15.6257V2.98999H293V9.81519Z" fill="#F8FCFB"/>
<defs>
<linearGradient id="paint0_linear_3003_22380" x1="40" y1="0" x2="40" y2="40" gradientUnits="userSpaceOnUse">
<stop stop-color="#F8FCFB"/>
<stop offset="0.5" stop-color="#E4EEED"/>
<stop offset="1" stop-color="#F8FCFB"/>
</linearGradient>
</defs>
</svg>
